<?xml version="1.0" standalone="no"?><!DOCTYPE svg PUBLIC "-//W3C//DTD SVG 1.1//EN" "http://www.w3.org/Graphics/SVG/1.1/DTD/svg11.dtd"><svg t="1753450168606" class="icon" viewBox="0 0 1024 1024" version="1.1" xmlns="http://www.w3.org/2000/svg" p-id="1508" xmlns:xlink="http://www.w3.org/1999/xlink" width="200" height="200"><path d="M768 51.2H256c-113.10592 0-204.8 91.68896-204.8 204.8v512c0 113.11104 91.69408 204.8 204.8 204.8h512c113.11104 0 204.8-91.68896 204.8-204.8V256c0-113.11104-91.68896-204.8-204.8-204.8z m33.71008 293.57568c-0.98304-0.03072-2.00704-0.03072-2.9952-0.03072h-135.59296c-10.81344-52.8896-26.5216-98.6112-45.5168-133.38112a243.08224 243.08224 0 0 0-12.57472-20.72576c83.68128 24.192 153.9072 80.25088 196.67968 154.1376zM511.99488 177.49504c24.704 0 45.1584 22.81984 63.68256 56.71936 15.97952 29.29664 29.20448 67.0208 38.7584 110.53056H409.55392c9.55904-43.51488 22.78912-81.23904 38.76864-110.53056 18.51392-33.89952 38.97344-56.71936 63.67232-56.71936z m-93.0304 13.13792a243.88608 243.88608 0 0 0-12.57472 20.72576c-18.9952 34.76992-34.70848 80.49152-45.5168 133.38112H225.28c-0.98304 0-2.00192 0-2.98496 0.03072h-0.00512c42.77248-73.88672 112.98304-129.9456 196.67456-154.1376zM222.2848 679.2192c0.98816 0.03072 2.00704 0.03072 2.99008 0.03072h135.59296c10.81344 52.89984 26.52672 98.62144 45.52192 133.39136a240.85504 240.85504 0 0 0 12.5696 20.72064c-83.68128-24.20224-153.90208-80.25088-196.67456-154.14272zM512 846.51008c-24.69888 0-45.1584-22.81984-63.67232-56.7296-15.98464-29.29152-29.21472-67.01056-38.76864-110.53056h204.89728c-9.56416 43.52-22.79424 81.23904-38.76864 110.53056-18.5344 33.90976-38.9888 56.7296-63.68768 56.7296z m93.0304-13.14816a241.88928 241.88928 0 0 0 12.57472-20.72064c18.9952-34.76992 34.69312-80.49152 45.5168-133.39136h135.58784c0.98304 0 1.9968 0 2.9952-0.02048-42.77248 73.8816-112.97792 129.94048-196.67456 154.13248zM870.4 559.79008c0 19.01056-7.55712 37.23776-20.99712 50.67776a71.66976 71.66976 0 0 1-50.68288 21.00224H225.28a71.68 71.68 0 0 1-71.68-71.68V464.21504c0-19.02592 7.55712-37.24288 20.99712-50.68288A71.6544 71.6544 0 0 1 225.28 392.53504h573.44c19.03104 0 37.23776 7.55712 50.68288 20.99712A71.6544 71.6544 0 0 1 870.4 464.21504v95.57504z" p-id="1509" data-spm-anchor-id="a313x.search_index.0.i0.26193a81iScvlk" class="selected" fill="#2563eb"></path></svg> 